<svg xmlns="http://www.w3.org/2000/svg" viewBox="0 0 960 540" width="960" height="540" role="img" aria-label="Crop Yield Prediction - placeholder">
  <defs>
    <linearGradient id="bg" x1="0" y1="0" x2="1" y2="1">
      <stop offset="0" stop-color="#0e1726"/>
      <stop offset="1" stop-color="#13233b"/>
    </linearGradient>
    <linearGradient id="bar" x1="0" y1="1" x2="0" y2="0">
      <stop offset="0" stop-color="#1f7a4d"/>
      <stop offset="1" stop-color="#36d399"/>
    </linearGradient>
  </defs>
  <rect width="960" height="540" fill="url(#bg)"/>
  <!-- grid -->
  <g stroke="#23344f" stroke-width="1">
    <line x1="120" y1="120" x2="120" y2="430"/>
    <line x1="120" y1="430" x2="840" y2="430"/>
    <line x1="120" y1="360" x2="840" y2="360" stroke-dasharray="4 6"/>
    <line x1="120" y1="280" x2="840" y2="280" stroke-dasharray="4 6"/>
    <line x1="120" y1="200" x2="840" y2="200" stroke-dasharray="4 6"/>
  </g>
  <!-- bars (feature importance style) -->
  <g fill="url(#bar)">
    <rect x="170" y="180" width="70" height="250" rx="6"/>
    <rect x="280" y="250" width="70" height="180" rx="6"/>
    <rect x="390" y="300" width="70" height="130" rx="6"/>
    <rect x="500" y="330" width="70" height="100" rx="6"/>
    <rect x="610" y="360" width="70" height="70" rx="6"/>
    <rect x="720" y="385" width="70" height="45" rx="6"/>
  </g>
  <!-- trend line -->
  <polyline points="205,170 315,235 425,290 535,322 645,352 755,378" fill="none" stroke="#9be7c4" stroke-width="3" stroke-linecap="round" stroke-linejoin="round" opacity="0.9"/>
  <g fill="#9be7c4">
    <circle cx="205" cy="170" r="5"/><circle cx="315" cy="235" r="5"/><circle cx="425" cy="290" r="5"/>
    <circle cx="535" cy="322" r="5"/><circle cx="645" cy="352" r="5"/><circle cx="755" cy="378" r="5"/>
  </g>
  <text x="120" y="80" fill="#e8eef7" font-family="Segoe UI, Arial, sans-serif" font-size="34" font-weight="700">Crop Yield Prediction</text>
  <text x="120" y="112" fill="#7e93b2" font-family="Segoe UI, Arial, sans-serif" font-size="18">Random Forest · Feature Importance · Python / scikit-learn</text>
  <text x="120" y="470" fill="#52668a" font-family="Segoe UI, Arial, sans-serif" font-size="14">Placeholder — replace with a chart exported from CropYieldPrediction.ipynb (see README)</text>
</svg>
